<?xml version="1.0" standalone="no"?>
<!DOCTYPE svg PUBLIC "-//W3C//DTD SVG 20010904//EN"
 "http://www.w3.org/TR/2001/REC-SVG-20010904/DTD/svg10.dtd">
<svg version="1.0" xmlns="http://www.w3.org/2000/svg"
 width="848.000000pt" height="848.000000pt" viewBox="0 0 848.000000 848.000000"
 preserveAspectRatio="xMidYMid meet">
<metadata>
Created by potrace 1.14, written by Peter Selinger 2001-2017
</metadata>
<g transform="translate(0.000000,848.000000) scale(0.100000,-0.100000)"
fill="#000000" stroke="none">
<path d="M2517 6074 c-1 -1 -25 -5 -52 -8 -28 -2 -60 -7 -72 -10 -13 -3 -31
-8 -42 -10 -31 -7 -126 -50 -129 -58 -2 -4 -8 -8 -13 -8 -8 0 -21 -10 -75 -57
-40 -36 -93 -115 -110 -166 -18 -52 -24 -194 -12 -264 14 -84 120 -227 203
-276 68 -40 149 -79 245 -117 216 -86 312 -152 325 -224 23 -124 -13 -201
-115 -244 -35 -14 -143 -20 -190 -9 -99 22 -209 110 -292 232 -24 36 -46 65
-49 65 -4 0 -61 -39 -127 -86 l-120 -85 21 -42 c12 -23 25 -44 28 -47 3 -3 10
-12 15 -21 23 -42 113 -134 168 -173 157 -111 283 -151 467 -147 76 1 225 33
243 51 6 6 16 10 23 10 25 0 127 72 177 124 46 47 99 142 112 197 13 55 12
206 -2 259 -44 166 -197 305 -424 385 -127 45 -239 98 -294 140 -70 54 -90
157 -41 221 14 19 43 42 63 51 50 22 175 22 225 0 20 -9 39 -15 40 -14 7 4
117 -107 143 -144 l26 -38 47 26 c25 14 59 33 74 42 16 9 36 21 45 26 9 6 36
21 60 33 l42 23 -16 32 c-18 35 -65 95 -111 142 -39 39 -91 85 -98 85 -3 0
-23 11 -45 25 -22 14 -40 22 -40 19 0 -4 -9 1 -20 11 -11 10 -20 15 -20 11 0
-3 -15 0 -32 7 -18 8 -36 15 -40 15 -5 1 -9 2 -10 3 -18 4 -197 16 -201 13z"/>
<path d="M6007 6074 c-1 -1 -27 -4 -57 -8 -98 -11 -125 -17 -196 -41 -203 -68
-383 -218 -478 -398 -35 -66 -74 -169 -82 -217 -3 -14 -9 -48 -14 -76 -18
-104 -4 -283 34 -429 15 -58 78 -176 129 -245 118 -157 298 -276 475 -315 12
-3 32 -7 43 -10 79 -17 219 -24 262 -13 16 4 27 3 27 -3 0 -6 4 -8 8 -5 5 3
24 8 43 11 19 3 54 11 79 16 25 6 52 12 60 14 67 14 238 104 286 150 6 5 26
24 45 40 43 38 144 155 133 155 -4 0 0 8 8 18 43 48 108 225 124 335 16 104 9
276 -16 372 -21 87 -105 275 -122 275 -4 0 -8 5 -8 10 0 18 -154 180 -171 180
-3 0 -19 11 -35 25 -65 57 -240 127 -363 146 -59 9 -208 18 -214 13z m162
-334 c185 -33 333 -168 385 -350 50 -177 32 -355 -52 -500 -41 -70 -131 -154
-204 -188 -86 -41 -114 -47 -248 -47 -95 0 -125 4 -174 23 -89 35 -140 68
-196 129 -42 46 -122 179 -119 198 0 3 -5 31 -11 61 -19 93 -15 222 11 317 48
179 211 327 390 356 117 19 115 19 218 1z"/>
<path d="M100 6040 l-75 -5 0 -148 c0 -82 4 -151 9 -154 5 -3 106 -6 225 -7
l216 -1 0 -680 0 -680 60 -5 c33 -3 112 -4 175 -2 l115 3 0 682 0 682 200 2
c110 1 211 2 225 2 l26 1 -1 149 c0 82 -3 152 -6 156 -8 7 -1064 12 -1169 5z"/>
<path d="M3555 6040 l-120 -5 0 -837 -1 -838 68 0 c37 -1 102 -1 143 -1 41 0
88 0 105 1 l30 0 2 368 3 367 383 0 c232 0 386 -3 389 -9 4 -5 7 -170 7 -365
l1 -356 172 -3 171 -2 0 840 1 840 -82 1 c-195 1 -250 0 -256 -6 -3 -4 -7
-133 -8 -288 -1 -155 -2 -294 -2 -309 l-1 -27 -390 -1 -390 0 -2 316 -3 316
-50 2 c-27 0 -104 -1 -170 -4z"/>
<path d="M7363 6042 l-151 -3 1 -840 2 -841 103 1 c56 0 133 0 171 1 l69 0 0
283 c1 155 1 292 1 305 1 22 3 22 144 23 192 1 266 12 377 56 103 41 165 93
228 190 73 114 94 271 58 438 -23 106 -104 219 -200 280 -17 10 -33 22 -36 26
-8 10 -121 51 -155 56 -16 2 -37 6 -45 9 -35 13 -316 21 -567 16z m513 -310
c120 -38 175 -116 170 -240 -3 -86 -28 -135 -91 -179 -49 -34 -111 -46 -257
-49 l-138 -2 -1 31 c0 51 -1 368 0 414 l1 43 143 -4 c78 -2 156 -9 173 -14z"/>
<path d="M1300 4929 l0 -136 245 -2 246 -1 7 23 c9 27 7 235 -3 245 -3 4 -117
7 -251 7 l-244 1 0 -137z"/>
<path d="M149 4035 c-3 -2 -16 -6 -31 -9 -61 -11 -106 -60 -115 -124 -6 -47
40 -175 102 -285 25 -44 45 -84 45 -88 0 -5 4 -9 8 -9 5 0 15 -12 23 -27 8
-16 16 -30 19 -33 3 -3 24 -27 45 -55 256 -322 674 -516 1122 -519 46 -1 83
-4 83 -8 0 -4 13 -3 29 2 16 4 32 6 35 3 4 -5 35 -5 152 -1 22 1 44 -1 50 -4
5 -3 18 -2 29 2 11 4 32 4 48 -1 15 -4 27 -4 27 0 0 4 22 5 50 1 27 -3 55 -3
61 0 6 4 28 4 49 0 22 -4 42 -5 45 -2 7 8 112 5 125 -3 6 -3 10 -1 10 5 0 6 4
9 9 6 5 -4 35 -6 68 -6 32 0 67 0 78 0 11 -1 27 -1 35 -1 89 3 131 2 139 -4 6
-3 11 -3 11 2 0 4 29 8 65 8 36 0 65 -2 65 -5 0 -3 26 -4 57 -3 32 2 72 3 88
3 17 0 39 0 50 0 11 0 45 0 76 1 31 0 60 -1 65 -2 5 -1 14 0 19 1 22 4 116 1
125 -5 6 -3 10 -3 10 2 0 9 182 9 196 1 5 -3 18 -2 29 2 11 4 32 4 48 -1 16
-5 27 -4 27 2 0 6 4 8 9 5 9 -6 79 -8 157 -4 22 1 44 -1 50 -4 5 -3 18 -2 29
2 11 4 32 4 48 -1 15 -4 27 -4 27 0 0 4 22 5 50 1 27 -3 55 -3 61 0 6 4 28 4
49 0 22 -4 42 -5 45 -2 7 8 112 5 125 -3 6 -3 10 -1 10 5 0 6 4 9 9 6 5 -4 35
-6 68 -6 32 0 67 0 78 0 11 -1 27 -1 35 -1 89 3 131 2 139 -4 6 -3 11 -3 11 2
0 4 29 8 65 8 36 0 65 -2 65 -5 0 -3 26 -4 57 -3 32 2 72 3 88 3 17 0 39 0 50
0 11 0 45 0 76 1 31 0 60 -1 65 -2 5 -1 14 0 19 1 22 4 116 1 125 -5 6 -3 10
-3 10 2 0 7 64 8 146 3 16 -1 34 -1 39 0 23 4 116 1 125 -5 6 -3 10 -1 10 5 0
6 4 9 9 6 5 -4 35 -6 68 -6 32 0 67 0 78 0 11 -1 27 -1 35 -1 89 3 131 2 139
-4 6 -3 11 -3 11 2 0 4 29 8 65 8 36 0 65 -2 65 -5 0 -3 26 -4 57 -3 32 2 72
3 88 3 17 0 39 0 50 0 11 0 45 0 76 1 31 0 60 -1 65 -2 5 -1 14 0 19 1 22 4
116 1 125 -5 6 -3 10 -3 10 2 0 9 182 9 196 1 5 -3 18 -2 29 2 11 4 32 4 48
-1 16 -5 27 -4 27 2 0 6 4 8 9 5 9 -6 79 -8 157 -4 22 1 44 -1 50 -4 5 -3 18
-2 29 2 11 4 32 4 48 -1 15 -4 27 -5 27 -1 0 4 44 7 98 8 126 1 243 14 346 40
194 50 337 112 485 214 120 82 261 222 329 325 15 22 29 42 32 45 11 10 88
146 108 191 66 145 72 182 39 244 -42 81 -127 106 -213 64 -35 -17 -85 -71
-90 -99 -2 -10 -16 -45 -44 -107 -90 -197 -273 -386 -469 -483 -70 -35 -191
-81 -191 -73 0 3 -7 0 -15 -7 -8 -7 -15 -10 -15 -7 0 3 -15 1 -32 -5 -18 -5
-44 -11 -58 -13 -14 -2 -41 -7 -60 -10 -19 -4 -62 -9 -95 -11 -79 -5 -5783 -4
-5815 0 -14 2 -45 7 -70 10 -93 12 -218 43 -235 57 -5 5 -15 9 -23 9 -35 0
-216 97 -297 160 -55 42 -168 166 -212 231 -60 90 -122 219 -130 268 -3 20
-35 62 -64 82 -23 17 -91 33 -100 24z"/>
<path d="M1910 2708 c-25 -5 -52 -12 -60 -15 -8 -4 -17 -7 -20 -8 -102 -27
-237 -138 -304 -249 -56 -94 -80 -176 -81 -290 -4 -227 115 -429 310 -525 94
-46 157 -60 265 -56 179 5 303 73 434 235 23 29 75 140 82 174 2 14 8 36 13
48 5 13 7 70 5 128 -3 110 -6 135 -17 146 -4 4 -7 13 -7 20 0 24 -49 121 -86
171 -88 117 -198 187 -344 219 -38 9 -149 10 -190 2z m173 -330 c60 -18 126
-85 147 -150 48 -147 -26 -293 -170 -335 -8 -3 -39 -5 -68 -4 -108 0 -201 76
-229 186 -31 126 38 259 156 301 46 17 113 17 164 2z"/>
<path d="M6153 2709 c-70 -13 -175 -60 -234 -105 -50 -38 -77 -65 -131 -132
-42 -52 -91 -175 -103 -262 -17 -117 9 -245 73 -360 143 -259 459 -361 722
-232 68 33 68 33 144 107 108 105 166 231 172 377 3 76 -1 114 -21 205 -10 45
-76 160 -121 211 -50 57 -160 140 -194 147 -12 2 -27 8 -34 13 -33 27 -194 45
-273 31z m158 -331 c78 -23 142 -99 166 -198 19 -75 -4 -154 -61 -215 -67 -70
-146 -94 -238 -70 -146 37 -224 206 -160 347 53 118 172 173 293 136z"/>
</g>
</svg>
