<svg width="91" height="52" viewBox="0 0 91 52" fill="none" xmlns="http://www.w3.org/2000/svg">
<path fill-rule="evenodd" clip-rule="evenodd" d="M32.6122 0H59.2303C61.2788 0 62.3519 0.918163 62.3519 2.84861V28.0275C62.3519 29.9559 61.2788 30.8751 59.2303 30.8751H32.6122C30.5638 30.8751 29.4907 29.9559 29.4907 28.0275V2.84761C29.4907 0.918164 30.5638 0 32.6122 0Z" fill="#CF4044" fill-opacity="0.8"/>
<path fill-rule="evenodd" clip-rule="evenodd" d="M36.2645 15.8084C36.2644 16.9335 36.5026 18.0475 36.9655 19.0869C37.4284 20.1263 38.1071 21.0708 38.9626 21.8662C39.8181 22.6617 40.8337 23.2927 41.9515 23.7231C43.0693 24.1534 44.2673 24.3748 45.4771 24.3746C50.5508 24.3746 54.6737 20.5405 54.6737 15.8084C54.6737 11.0763 50.5508 7.24127 45.4771 7.24127C44.2672 7.24088 43.069 7.46221 41.9511 7.89261C40.8332 8.32301 39.8174 8.95404 38.9619 9.74965C38.1063 10.5453 37.4277 11.4899 36.9649 12.5294C36.5021 13.569 36.2641 14.6833 36.2645 15.8084ZM55.6083 16.9482C54.9959 21.6384 50.7033 25.2876 45.5083 25.2876C40.2961 25.2876 36.0035 21.6394 35.3911 16.9482H32.8613C33.4758 22.9341 38.9018 27.6252 45.5083 27.6252C52.0987 27.6252 57.5247 22.9351 58.1392 16.9482H55.6083ZM44.2804 6.41413L44.2654 4.06256C41.7461 4.2839 39.3575 5.20804 37.4129 6.71382L39.2068 8.38209C40.6698 7.3024 42.4261 6.62117 44.2804 6.41413ZM37.4601 10.0064L35.6661 8.33914C34.0736 10.1414 33.0968 12.3452 32.8613 14.6676H35.3911C35.6157 12.9687 36.3306 11.358 37.4601 10.0064ZM55.6083 14.6676L58.1381 14.6816C57.9024 12.3298 56.9087 10.0991 55.2871 8.2812L53.4931 9.94847C54.6485 11.3123 55.38 12.9444 55.6083 14.6676ZM53.5404 6.67086C51.5959 5.19022 49.221 4.28212 46.719 4.06256V6.41413C48.5511 6.62148 50.2885 7.28673 51.7464 8.33914L53.5404 6.67086ZM45.4771 9.60783C47.1461 9.60739 48.7547 10.1885 49.9856 11.2367C51.2165 12.2848 51.9804 13.7238 52.1265 15.2699C52.2727 16.816 51.7906 18.3569 50.7752 19.5886C49.7599 20.8204 48.2851 21.6537 46.6416 21.9241H46.488V18.9452L49.1543 19.8992L49.1392 17.7334L46.4869 16.7774V16.0941L49.1532 17.0481L49.1381 14.8814L46.4859 13.9413V13.2281L49.1521 14.1831L49.1371 12.0303L45.4277 10.6198L41.611 12.0303V14.1831L44.3234 13.2141V13.9264L41.611 14.8814V16.9912L44.3234 16.0642V16.7624L41.611 17.7164V19.8552L44.3234 18.9282V21.9231H44.2622C42.7252 21.6592 41.3362 20.903 40.3365 19.7857C39.3369 18.6685 38.7897 17.2609 38.79 15.8074C38.7937 14.161 39.5001 12.5832 40.754 11.4207C42.0078 10.2583 43.7066 9.60624 45.4771 9.60783Z" fill="white"/>
<path fill-rule="evenodd" clip-rule="evenodd" d="M26.3948 41.006C24.4311 41.006 23.1808 41.8736 22.6451 43.5521H30.0847C29.5491 41.8743 28.2994 41.006 26.3948 41.006ZM38.0302 42.1051C38.5659 41.3528 39.2799 40.948 40.2915 40.948C41.3032 40.948 42.0179 41.2948 42.4939 42.047C42.8512 42.6259 43.0295 43.6675 43.0295 45.2306V51.9426H46.3032V44.0736C46.3628 43.2053 46.5412 42.5105 46.8388 42.1057C47.3148 41.3535 48.0885 40.9487 49.1008 40.9487C50.0528 40.9487 50.7668 41.2954 51.2435 42.0477C51.6008 42.6265 51.7791 43.6681 51.7791 45.2312V51.9433H55.0528V44.595C55.0528 42.3957 54.6961 40.8333 53.9815 39.8496L53.6241 39.4448C52.5528 38.3452 51.2435 37.8244 49.7558 37.8244C48.1488 37.8244 46.7202 38.5766 45.4108 40.1391L45.2325 39.8496L44.8752 39.4448C43.8045 38.3452 42.4945 37.8244 40.9472 37.8244C39.4595 37.8244 38.3285 38.2872 37.4952 39.2134V38.1718H34.2222V51.9439H37.4952V45.4639C37.4945 43.7842 37.6729 42.6265 38.0302 42.1051ZM71.0014 38.1705V51.9426H74.2757V45.4626C74.2757 43.7842 74.4541 42.6265 74.8114 42.1057C75.2874 41.3535 76.0604 40.9487 77.0721 40.9487C78.0837 40.9487 78.7984 41.2954 79.2154 42.0477C79.6324 42.6265 79.8107 43.6681 79.8107 45.2312V51.9433H83.0837V44.595C83.0837 42.4537 82.7264 40.8333 82.0124 39.8496L81.6551 39.4448C80.585 38.3452 79.275 37.8244 77.7271 37.8244C76.2388 37.8244 75.1091 38.2872 74.2757 39.2134V38.1718H71.0014V38.1705ZM63.1461 41.006C61.1818 41.006 59.9328 41.8736 59.3971 43.5521H66.8361C66.2998 41.8743 65.0508 41.006 63.1461 41.006ZM58.0275 40.0224C59.4561 38.576 61.1811 37.8811 63.1461 37.8811C65.0514 37.8811 66.7168 38.576 68.0858 39.9644C69.4548 41.3528 70.1097 42.9733 70.1097 44.8252L69.9314 46.329H59.3971C59.9924 48.0075 61.1818 48.8757 62.9678 48.8757C64.2777 48.8757 65.2881 48.4703 66.0028 47.7181H69.6344C69.2174 48.9337 68.3841 49.9174 67.1344 50.7263C65.8841 51.5946 64.5164 52 63.0877 52C61.1234 52 59.4574 51.3052 58.0884 49.9754C56.6598 48.5863 55.9458 46.9078 55.9458 44.9986C55.9445 43.0313 56.6591 41.3535 58.0275 40.0224ZM91 37.9391H88.6784V32.5002H85.4054V37.9391H83.0837V41.064H85.4054V51.9426H88.6784V41.064H91V37.9391ZM18.2709 51.9426H15.057V32.5002H18.2709V51.9426ZM7.20099 41.006C5.23667 41.006 3.987 41.8736 3.45134 43.5521H10.891C10.3553 41.8743 9.10499 41.006 7.20099 41.006ZM2.08235 40.0224C3.511 38.576 5.23667 37.8811 7.20099 37.8811C9.10564 37.8811 10.7716 38.576 12.1406 39.9644C13.509 41.3528 14.164 42.9733 14.164 44.8252L13.9856 46.329H3.45134C4.04666 48.0075 5.23667 48.8757 7.02265 48.8757C8.33198 48.8757 9.34364 48.4703 10.0576 47.7181H13.688C13.2716 48.9337 12.4383 49.9174 11.1886 50.7263C9.93897 51.5946 8.56998 52 7.14197 52C5.17765 52 3.511 51.3052 2.14266 49.9754C0.714003 48.5863 4.41365e-07 46.9078 4.41365e-07 44.9986C-0.000648062 43.0313 0.713354 41.3535 2.08235 40.0224ZM21.2761 40.0224C22.7048 38.576 24.4304 37.8811 26.3941 37.8811C28.2994 37.8811 29.9654 38.576 31.3344 39.9644C32.7034 41.3528 33.3577 42.9733 33.3577 44.8252L33.1794 46.329H22.6451C23.2404 48.0075 24.4304 48.8757 26.2164 48.8757C27.5257 48.8757 28.5374 48.4703 29.2514 47.7181H32.8824C32.4654 48.9337 31.6321 49.9174 30.3831 50.7263C29.1327 51.5946 27.7644 52 26.3357 52C24.3714 52 22.7054 51.3052 21.3364 49.9754C19.9078 48.5863 19.1938 46.9078 19.1938 44.9986C19.1931 43.0313 19.9078 41.3535 21.2761 40.0224Z" fill="black" fill-opacity="0.8"/>
</svg>
