<svg width="28" height="23" viewBox="0 0 28 23" fill="none" xmlns="http://www.w3.org/2000/svg">
<path d="M21.9806 5.76234C20.9394 2.35252 17.689 0 13.949 0C10.2501 0 7.00696 2.32192 5.93999 5.69027C2.42568 6.71105 0 9.81582 0 13.3569C0 17.7826 3.75759 21.381 8.3801 21.381C9.92335 21.381 11.4016 20.9812 12.6892 20.2338C12.7954 20.2733 12.9346 20.3059 13.0717 20.3385V22.4057C13.0717 22.7344 13.35 23 13.6923 23C14.0345 23 14.3129 22.7335 14.3129 22.4057V20.4135C14.5737 20.374 14.8252 20.3039 15.0263 20.1539C16.3757 21.0127 17.956 21.4787 19.6209 21.4787C24.2424 21.4787 28 17.8793 28 13.4547C28 9.87407 25.5424 6.75942 21.9806 5.76234ZM19.6199 20.2901C18.5612 20.2901 17.5447 20.066 16.6149 19.6494C20.3714 17.9376 21.2817 13.5455 21.2817 13.5455C18.5983 14.1773 16.8561 15.1438 15.7066 16.1527C16.0489 12.7182 13.6005 9.82569 13.6005 9.82569C12.3676 12.2473 12.0387 14.1763 12.1295 15.6749C11.0852 14.7874 9.61614 13.9177 7.50488 13.2158C7.50488 13.2158 7.95847 17.4815 11.3243 19.5783C10.4089 19.9762 9.41306 20.1924 8.37804 20.1924C4.44107 20.1924 1.24016 17.1261 1.24016 13.3569C1.24016 10.2423 3.44317 7.52253 6.59563 6.7456L6.95129 6.65873L7.04201 6.31814C7.85538 3.29728 10.6924 1.18761 13.9479 1.18761C17.2385 1.18761 20.0838 3.32591 20.8704 6.38823L20.9611 6.7377L21.325 6.82458C24.5249 7.57584 26.7578 10.3015 26.7578 13.4537C26.7598 17.2268 23.56 20.2901 19.622 20.2901H19.6199Z" fill="#262626"/>
</svg>
