<svg width="26" height="25" viewBox="0 0 26 25" fill="none" xmlns="http://www.w3.org/2000/svg">
<path d="M23.8093 8.39442L23.8093 8.39427L23.8005 8.39294L17.4158 7.42403L14.5212 1.68677C14.5211 1.68655 14.521 1.68634 14.5209 1.68613C13.8987 0.437959 12.1216 0.437957 11.4994 1.68612C11.4992 1.68634 11.4991 1.68655 11.499 1.68677L8.60366 7.42563L2.22133 8.46868C0.799202 8.65079 0.274359 10.3486 1.24714 11.3252L1.24858 11.3267L5.85178 15.8733L4.81296 22.2796C4.54785 23.6289 5.97745 24.6893 7.21577 24.0677L7.21804 24.0666L13.0094 21.085L18.7253 24.066L18.7253 24.066L18.7288 24.0677C19.9758 24.6937 21.3858 23.6219 21.209 22.291L21.2092 22.2909L21.2075 22.2811L20.094 15.8721L24.6889 11.3336C25.7703 10.4177 25.1964 8.65554 23.8093 8.39442ZM2.36845 9.72381L2.36845 9.72382L2.37071 9.72347L9.33738 8.65918L9.46559 8.63959L9.52341 8.5235L12.6281 2.28978L12.6314 2.28322L12.6343 2.27648C12.7095 2.10023 12.8477 2.02922 12.9723 2.02922C13.0969 2.02922 13.235 2.10023 13.3103 2.27648L13.3136 2.28433L13.3175 2.29194L16.4979 8.52566L16.5561 8.63959L16.6825 8.65912L23.5734 9.72341L23.5734 9.72342L23.5761 9.72381C23.8966 9.76978 24.039 10.1866 23.7541 10.4249L23.7461 10.4316L23.7387 10.4389L18.8166 15.3042L18.7249 15.3948L18.7456 15.5221L19.881 22.5133C19.9047 22.6852 19.8316 22.8185 19.7311 22.8875C19.6341 22.9541 19.4992 22.9704 19.3586 22.8763L19.3467 22.8683L19.3339 22.8618L13.1245 19.6689L13.0108 19.6105L12.8969 19.6683L6.61176 22.8612L6.59839 22.868L6.58594 22.8763C6.45957 22.9609 6.32892 22.9443 6.22054 22.8641C6.10335 22.7774 6.04288 22.6375 6.06292 22.5169L6.06306 22.516L7.19893 15.5221L7.2194 15.396L7.12928 15.3056L2.20718 10.3642C2.07833 10.2348 2.04964 10.0791 2.08201 9.95999C2.11294 9.84611 2.20326 9.7475 2.36845 9.72381Z" fill="#E3B53F" stroke="#E3B53F" stroke-width="0.5"/>
</svg>
