<svg width="28" height="33" viewBox="0 0 28 33" fill="none" xmlns="http://www.w3.org/2000/svg">
<g clip-path="url(#clip0)">
<path d="M23.43 0H5.15046C3.93845 0 2.77608 0.46357 1.91906 1.28873C1.06204 2.11389 0.580566 3.23305 0.580566 4.4L0.580566 22C0.580566 23.167 1.06204 24.2861 1.91906 25.1113C2.77608 25.9364 3.93845 26.4 5.15046 26.4H23.43C24.642 26.4 25.8044 25.9364 26.6614 25.1113C27.5184 24.2861 27.9999 23.167 27.9999 22V4.4C27.9999 3.23305 27.5184 2.11389 26.6614 1.28873C25.8044 0.46357 24.642 0 23.43 0V0ZM25.715 22C25.715 22.5835 25.4742 23.1431 25.0457 23.5556C24.6172 23.9682 24.036 24.2 23.43 24.2H5.15046C4.54445 24.2 3.96327 23.9682 3.53476 23.5556C3.10625 23.1431 2.86551 22.5835 2.86551 22V4.4C2.86551 3.81652 3.10625 3.25695 3.53476 2.84437C3.96327 2.43179 4.54445 2.2 5.15046 2.2H23.43C24.036 2.2 24.6172 2.43179 25.0457 2.84437C25.4742 3.25695 25.715 3.81652 25.715 4.4V22Z" fill="white"/>
<path d="M13.6499 8.33026H13.65L13.6499 8.32144C13.6435 7.96237 13.7024 7.60633 13.8221 7.27441C13.937 6.96221 14.1065 6.68113 14.3186 6.44653L14.3186 6.44654L14.3216 6.44313C14.5247 6.21435 14.7643 6.03412 15.0254 5.91023L15.0254 5.91026L15.0305 5.90778C15.3015 5.77539 15.5929 5.70878 15.8858 5.71048L15.8858 5.71049H15.8887H19.729V8.16966H16.2578H15.7578V8.66966V11.2804V11.7804H16.2578H19.3888L18.6227 14.2395H16.2757H15.7757V14.7395V20.342H13.6499V14.7395V14.2395H13.1499H10.4468V11.7804H13.1499H13.6499V11.2804V8.33026Z" stroke="white"/>
</g>
<defs>
<clipPath id="clip0">
<rect width="27.4194" height="33" fill="white" transform="translate(0.580566)"/>
</clipPath>
</defs>
</svg>
