<svg width="114" height="69" viewBox="0 0 114 69" fill="none" xmlns="http://www.w3.org/2000/svg">
<path d="M4.31379 14.9V11H19.9438V14.9H14.2738V32H9.95379V14.9H4.31379ZM20.2506 26.6V23.18H26.5206V26.6H20.2506ZM30.7738 24.92C31.4338 26.08 32.1938 27.02 33.0538 27.74C33.9338 28.46 34.9338 28.82 36.0538 28.82C36.9338 28.82 37.6338 28.6 38.1538 28.16C38.6738 27.7 38.9338 27.1 38.9338 26.36C38.9338 25.72 38.7638 25.2 38.4238 24.8C38.1038 24.38 37.6238 24.02 36.9838 23.72C36.3438 23.4 35.5538 23.06 34.6138 22.7C34.0938 22.5 33.5138 22.25 32.8738 21.95C32.2338 21.65 31.6138 21.26 31.0138 20.78C30.4338 20.28 29.9538 19.68 29.5738 18.98C29.1938 18.26 29.0038 17.4 29.0038 16.4C29.0038 15.22 29.3038 14.2 29.9038 13.34C30.5238 12.46 31.3538 11.78 32.3938 11.3C33.4538 10.82 34.6438 10.58 35.9638 10.58C37.2838 10.58 38.4338 10.81 39.4138 11.27C40.3938 11.71 41.2038 12.28 41.8438 12.98C42.5038 13.66 43.0138 14.36 43.3738 15.08L40.0138 17C39.5738 16.24 39.0238 15.6 38.3638 15.08C37.7038 14.54 36.9038 14.27 35.9638 14.27C35.1238 14.27 34.4938 14.47 34.0738 14.87C33.6538 15.25 33.4438 15.7 33.4438 16.22C33.4438 17 33.8338 17.65 34.6138 18.17C35.3938 18.67 36.5738 19.19 38.1538 19.73C39.0738 20.05 39.9338 20.49 40.7338 21.05C41.5538 21.59 42.2138 22.28 42.7138 23.12C43.2338 23.94 43.4938 24.94 43.4938 26.12C43.4938 27.48 43.1438 28.64 42.4438 29.6C41.7438 30.56 40.8238 31.29 39.6838 31.79C38.5638 32.29 37.3738 32.54 36.1138 32.54C34.8138 32.54 33.6038 32.3 32.4838 31.82C31.3838 31.34 30.4138 30.69 29.5738 29.87C28.7538 29.05 28.1138 28.14 27.6538 27.14L30.7738 24.92ZM46.9314 11H51.2514V18.86H61.0314V11H65.3514V32H61.0314V22.79H51.2514V32H46.9314V11ZM68.6415 21.5C68.6415 19.9 68.9215 18.44 69.4815 17.12C70.0415 15.78 70.8215 14.63 71.8215 13.67C72.8415 12.69 74.0215 11.93 75.3615 11.39C76.7015 10.85 78.1615 10.58 79.7415 10.58C81.3415 10.58 82.8115 10.85 84.1515 11.39C85.4915 11.93 86.6615 12.69 87.6615 13.67C88.6815 14.63 89.4615 15.78 90.0015 17.12C90.5615 18.44 90.8415 19.9 90.8415 21.5C90.8415 23.08 90.5615 24.55 90.0015 25.91C89.4615 27.25 88.6915 28.42 87.6915 29.42C86.7115 30.4 85.5415 31.17 84.1815 31.73C82.8415 32.27 81.3615 32.54 79.7415 32.54C78.1215 32.54 76.6315 32.27 75.2715 31.73C73.9315 31.17 72.7615 30.4 71.7615 29.42C70.7815 28.42 70.0115 27.25 69.4515 25.91C68.9115 24.55 68.6415 23.08 68.6415 21.5ZM73.2015 21.5C73.2015 22.84 73.4715 24.03 74.0115 25.07C74.5715 26.11 75.3415 26.93 76.3215 27.53C77.3215 28.11 78.4615 28.4 79.7415 28.4C81.0415 28.4 82.1815 28.11 83.1615 27.53C84.1415 26.93 84.9015 26.11 85.4415 25.07C86.0015 24.03 86.2815 22.84 86.2815 21.5C86.2815 20.16 86.0115 18.97 85.4715 17.93C84.9315 16.89 84.1715 16.08 83.1915 15.5C82.2115 14.9 81.0615 14.6 79.7415 14.6C78.4615 14.6 77.3215 14.9 76.3215 15.5C75.3415 16.08 74.5715 16.89 74.0115 17.93C73.4715 18.97 73.2015 20.16 73.2015 21.5ZM94.1579 11H100.968C103.468 11 105.398 11.6 106.758 12.8C108.118 14 108.798 15.64 108.798 17.72C108.798 19.78 108.118 21.41 106.758 22.61C105.398 23.79 103.468 24.38 100.968 24.38H98.4779V32H94.1579V11ZM100.968 14.66H98.4779V20.72H100.968C102.088 20.72 102.978 20.47 103.638 19.97C104.298 19.45 104.628 18.7 104.628 17.72C104.628 16.72 104.298 15.96 103.638 15.44C102.978 14.92 102.088 14.66 100.968 14.66Z" fill="white"/>
<path d="M93.6731 51.1753H19.3171C3.53913 51.1753 0.0933689 38.7535 0.0933689 38.7535C-0.269343 37.7183 0.45608 36.5106 1.72557 36.3381C2.81371 35.993 4.0832 36.6831 4.26456 37.8908C4.44591 38.2359 6.9849 47.2072 19.3171 47.2072H93.4917C105.824 47.2072 108.363 38.2359 108.544 37.8908C108.907 36.8557 109.995 36.1656 111.265 36.3381C112.353 36.6831 113.078 37.7183 112.897 38.7535C112.715 38.7535 109.451 51.1753 93.6731 51.1753Z" fill="#F0B643"/>
<path d="M26.8867 68.2336C22.6635 68.2336 19.3584 64.7752 19.3584 60.7706C19.3584 56.7661 22.8471 53.3076 26.8867 53.3076C31.1099 53.3076 34.415 56.7661 34.415 60.7706C34.415 64.7752 31.1099 68.2336 26.8867 68.2336ZM26.8867 57.4942C25.0505 57.4942 23.5816 58.9504 23.5816 60.7706C23.5816 62.5909 25.0505 64.0471 26.8867 64.0471C28.7229 64.0471 30.1918 62.5909 30.1918 60.7706C30.1918 58.7684 28.7229 57.4942 26.8867 57.4942Z" fill="#F0B643"/>
<path d="M83.8867 68.2336C79.6635 68.2336 76.3584 64.7752 76.3584 60.7706C76.3584 56.7661 79.8471 53.3076 83.8867 53.3076C87.9263 53.3076 91.415 56.7661 91.415 60.7706C91.415 64.7752 88.1099 68.2336 83.8867 68.2336ZM83.8867 57.4942C82.0505 57.4942 80.5816 58.9504 80.5816 60.7706C80.5816 62.5909 82.0505 64.0471 83.8867 64.0471C85.7229 64.0471 87.1918 62.5909 87.1918 60.7706C87.0082 58.7684 85.5393 57.4942 83.8867 57.4942Z" fill="#F0B643"/>
</svg>
