<svg width="28" height="33" viewBox="0 0 28 33" fill="none" xmlns="http://www.w3.org/2000/svg">
<g clip-path="url(#clip0)">
<path d="M23.14 0H4.86042C3.64841 0 2.48604 0.46357 1.62902 1.28873C0.771997 2.11389 0.290527 3.23305 0.290527 4.4L0.290527 22C0.290527 23.167 0.771997 24.2861 1.62902 25.1113C2.48604 25.9364 3.64841 26.4 4.86042 26.4H23.14C24.352 26.4 25.5144 25.9364 26.3714 25.1113C27.2284 24.2861 27.7099 23.167 27.7099 22V4.4C27.7099 3.23305 27.2284 2.11389 26.3714 1.28873C25.5144 0.46357 24.352 0 23.14 0V0ZM25.4249 22C25.4249 22.5835 25.1842 23.1431 24.7557 23.5556C24.3272 23.9682 23.746 24.2 23.14 24.2H4.86042C4.25441 24.2 3.67323 23.9682 3.24472 23.5556C2.81621 23.1431 2.57547 22.5835 2.57547 22V4.4C2.57547 3.81652 2.81621 3.25695 3.24472 2.84437C3.67323 2.43179 4.25441 2.2 4.86042 2.2H23.14C23.746 2.2 24.3272 2.43179 24.7557 2.84437C25.1842 3.25695 25.4249 3.81652 25.4249 4.4V22Z" fill="white"/>
<path d="M19.862 6.08816L6.06317 11.5527C6.06317 11.5527 5.41079 11.7783 5.46128 12.1945C5.51314 12.6114 6.0455 12.8021 6.0455 12.8021L9.51758 13.9815C9.51758 13.9815 10.5656 17.4506 10.7719 18.1107C10.9781 18.769 11.1436 18.7845 11.1436 18.7845C11.3357 18.8687 11.5103 18.7346 11.5103 18.7346L13.7535 16.6706L17.2497 19.3764C18.1953 19.7927 18.5395 18.9253 18.5395 18.9253L20.9962 6.4184C20.9962 5.58532 19.862 6.08816 19.862 6.08816ZM17.419 17.9194L13.6788 15.0255L12.5181 16.0931L12.7733 13.8217L17.7589 9.32567L10.963 13.1647L7.94847 12.1409L19.4496 7.58597L17.419 17.9194Z" fill="white"/>
</g>
<defs>
<clipPath id="clip0">
<rect width="27.4194" height="33" fill="white" transform="translate(0.290527)"/>
</clipPath>
</defs>
</svg>
