<svg width="28" height="25" viewBox="0 0 28 25" fill="none" xmlns="http://www.w3.org/2000/svg">
<path d="M5.61108 4.79352V4.35123H6.11576C6.36809 4.35123 6.53632 4.2038 6.53632 3.98266C6.53632 3.76151 6.36809 3.61408 6.11576 3.61408H5.61108V3.1718C5.61108 2.95065 5.44286 2.80322 5.19052 2.80322C4.93818 2.80322 4.76996 2.95065 4.76996 3.1718V3.61408H4.26529C4.01295 3.61408 3.84473 3.76151 3.84473 3.98266C3.84473 4.2038 4.01295 4.35123 4.26529 4.35123H4.76996V4.79352C4.76996 5.01466 4.93818 5.16209 5.19052 5.16209C5.44286 5.16209 5.61108 4.9778 5.61108 4.79352Z" fill="black"/>
<path d="M13.8956 7.22583C13.6433 7.22583 13.475 7.37323 13.475 7.59434V7.99969H12.9704C12.718 7.99969 12.5498 8.1471 12.5498 8.3682C12.5498 8.58931 12.718 8.73671 12.9704 8.73671H13.475V9.17892C13.475 9.40002 13.6433 9.54742 13.8956 9.54742C14.1479 9.54742 14.3162 9.40002 14.3162 9.17892V8.73671H14.8208C15.0732 8.73671 15.2414 8.58931 15.2414 8.3682C15.2414 8.1471 15.0732 7.99969 14.8208 7.99969H14.3162V7.55749C14.3162 7.37323 14.1059 7.22583 13.8956 7.22583Z" fill="black"/>
<path d="M5.61108 13.602V13.1597H6.11576C6.36809 13.1597 6.53632 13.0123 6.53632 12.7912C6.53632 12.5701 6.36809 12.4226 6.11576 12.4226H5.61108V11.9804C5.61108 11.7592 5.44286 11.6118 5.19052 11.6118C4.93818 11.6118 4.76996 11.7592 4.76996 11.9804V12.4226H4.26529C4.01295 12.4226 3.84473 12.5701 3.84473 12.7912C3.84473 13.0123 4.01295 13.1597 4.26529 13.1597H4.76996V13.602C4.76996 13.8231 4.93818 13.9706 5.19052 13.9706C5.44286 13.9706 5.61108 13.7863 5.61108 13.602Z" fill="black"/>
<path d="M14.3162 18.0247V17.5824H14.8208C15.0732 17.5824 15.2414 17.435 15.2414 17.2139C15.2414 16.9927 15.0732 16.8453 14.8208 16.8453H14.3162V16.403C14.3162 16.1819 14.1479 16.0344 13.8956 16.0344C13.6433 16.0344 13.475 16.1819 13.475 16.403V16.8453H12.9704C12.718 16.8453 12.5498 16.9927 12.5498 17.2139C12.5498 17.435 12.718 17.5824 12.9704 17.5824H13.475V18.0247C13.475 18.2459 13.6433 18.3933 13.8956 18.3933C14.1479 18.3933 14.3162 18.209 14.3162 18.0247Z" fill="black"/>
<path d="M22.6027 11.6118C22.3503 11.6118 22.1821 11.7592 22.1821 11.9804V12.4226H21.6774C21.4251 12.4226 21.2568 12.5701 21.2568 12.7912C21.2568 13.0123 21.4251 13.1597 21.6774 13.1597H22.1821V13.602C22.1821 13.8231 22.3503 13.9706 22.6027 13.9706C22.855 13.9706 23.0232 13.8231 23.0232 13.602V13.1597H23.5279C23.7803 13.1597 23.9485 13.0123 23.9485 12.7912C23.9485 12.5701 23.7803 12.4226 23.5279 12.4226H23.0232V11.9804C23.0232 11.7961 22.855 11.6118 22.6027 11.6118Z" fill="black"/>
<path d="M21.6774 4.35123H22.1821V4.79352C22.1821 5.01466 22.3503 5.16209 22.6027 5.16209C22.855 5.16209 23.0232 5.01466 23.0232 4.79352V4.35123H23.5279C23.7803 4.35123 23.9485 4.2038 23.9485 3.98266C23.9485 3.76151 23.7803 3.61408 23.5279 3.61408H23.0232V3.1718C23.0232 2.95065 22.855 2.80322 22.6027 2.80322C22.3503 2.80322 22.1821 2.95065 22.1821 3.1718V3.61408H21.6774C21.4251 3.61408 21.2568 3.76151 21.2568 3.98266C21.2568 4.2038 21.4671 4.35123 21.6774 4.35123Z" fill="black"/>
<path d="M6.11576 21.2312H5.61108V20.7887C5.61108 20.5674 5.44286 20.4199 5.19052 20.4199C4.93818 20.4199 4.76996 20.5674 4.76996 20.7887V21.2312H4.26529C4.01295 21.2312 3.84473 21.3787 3.84473 21.5999C3.84473 21.8211 4.01295 21.9686 4.26529 21.9686H4.76996V22.4111C4.76996 22.6324 4.93818 22.7799 5.19052 22.7799C5.44286 22.7799 5.61108 22.6324 5.61108 22.4111V21.9686H6.11576C6.36809 21.9686 6.53632 21.8211 6.53632 21.5999C6.53632 21.3787 6.32604 21.2312 6.11576 21.2312Z" fill="black"/>
<path d="M23.5279 21.2312H23.0232V20.7887C23.0232 20.5674 22.855 20.4199 22.6027 20.4199C22.3503 20.4199 22.1821 20.5674 22.1821 20.7887V21.2312H21.6774C21.4251 21.2312 21.2568 21.3787 21.2568 21.5999C21.2568 21.8211 21.4251 21.9686 21.6774 21.9686H22.1821V22.4111C22.1821 22.6324 22.3503 22.7799 22.6027 22.7799C22.855 22.7799 23.0232 22.6324 23.0232 22.4111V21.9686H23.5279C23.7803 21.9686 23.9485 21.8211 23.9485 21.5999C23.9485 21.3787 23.7803 21.2312 23.5279 21.2312Z" fill="black"/>
<path d="M27.7708 1.30473C27.9826 1.19099 28.025 0.963515 27.9403 0.773953C27.8132 0.58439 27.5589 0.546478 27.3471 0.622303L25.6946 1.45638C25.6522 1.41846 22.8133 -0.0222086 22.9828 0.0536163C22.898 0.0157039 22.7709 -0.0222086 22.6438 0.0157038C22.6014 0.0157038 22.5591 0.0536163 22.5591 0.0536163C22.5167 0.0915287 19.6778 1.5322 19.8473 1.45638C19.8049 1.49429 16.966 0.0157039 17.1355 0.0915287C17.0084 0.0157039 16.8389 0.0157039 16.7118 0.0915287C16.6694 0.129441 13.8305 1.57011 14 1.49429C13.9576 1.45638 11.1187 0.0157039 11.2882 0.0915287C11.2035 0.0536163 11.0764 0.0157039 10.9492 0.0536163C10.9069 0.0536163 10.8645 0.0915287 10.8645 0.0915287L8.15271 1.49429L5.44093 0.0915287C5.31381 0.0157039 5.14432 0.0157039 5.01721 0.0915287L2.30542 1.49429L0.652928 0.660215C0.441069 0.546478 0.18684 0.622303 0.0597245 0.811865C-0.0250188 0.963515 0.0173529 1.2289 0.229211 1.30473L1.88171 2.1388V4.71685L0.229211 5.55092C0.0173529 5.70257 -0.0250188 5.93004 0.0597245 6.11961C0.18684 6.30917 0.441069 6.34708 0.652928 6.27126L2.30542 5.43718C2.34779 5.47509 4.97484 6.80203 4.80535 6.72621V9.30425L2.30542 10.5933L0.652928 9.7592C0.441069 9.60755 0.18684 9.68338 0.0597245 9.87294C-0.0673904 10.0625 0.0173529 10.29 0.229211 10.4037L1.88171 11.2378V13.8158L0.229211 14.6499C0.0597245 14.7257 0.0173529 14.8774 0.0173529 15.029C0.0597245 15.2944 0.398698 15.4461 0.652928 15.2944L2.30542 14.4603L4.80535 15.7494V18.3274C4.76298 18.3653 2.13594 19.7302 2.30542 19.6543L0.652928 18.8203C0.441069 18.7065 0.18684 18.7824 0.0597245 18.9719C-0.0250188 19.1236 0.0173529 19.351 0.229211 19.4648L1.88171 20.2989V22.8769L0.229211 23.711C0.0173529 23.8247 -0.0250188 24.0522 0.0597245 24.2418C0.18684 24.4313 0.441069 24.4692 0.652928 24.3934L2.30542 23.5593L5.01721 24.9621C5.10195 25 5.14432 25 5.22907 25C5.31381 25 5.35618 25 5.44093 24.9621L8.15271 23.5593L10.8645 24.9621C10.9492 25 10.9916 25 11.0764 25C11.1611 25 11.2035 25 11.2882 24.9621L14 23.5593L16.7118 24.9621C16.7965 25 16.8389 25 16.9236 25C17.0084 25 17.0508 25 17.1355 24.9621L19.8473 23.5593L22.5591 24.9621C22.6438 25 22.6862 25 22.7709 25C22.8557 25 22.898 25 22.9828 24.9621L25.6946 23.5593L27.3471 24.3934C27.5589 24.5071 27.8132 24.4313 27.9403 24.2418C28.0674 24.0522 27.9826 23.8247 27.7708 23.711L26.1183 22.8769V20.2989L27.7708 19.4648C27.9403 19.389 27.9826 19.2373 27.9826 19.0857C27.9826 19.0477 27.9403 18.9719 27.9403 18.934C27.8132 18.7444 27.5589 18.7065 27.3471 18.7824L25.6946 19.6164C25.6522 19.5785 23.0252 18.2516 23.1947 18.3274V15.7494C23.237 15.7115 25.8641 14.3845 25.6946 14.4603L27.3471 15.2944C27.5589 15.4082 27.8132 15.3323 27.9403 15.1428C28.0674 14.9532 27.9826 14.7257 27.7708 14.612L26.1183 13.7779V11.1999L27.7708 10.3658C27.9826 10.2521 28.025 10.0246 27.9403 9.83502C27.8132 9.64546 27.5589 9.60755 27.3471 9.68338L25.6946 10.5174C25.6522 10.4795 23.0252 9.1526 23.1947 9.22843V6.65038L25.6946 5.36136L27.3471 6.19543C27.5589 6.30917 27.8132 6.23334 27.9403 6.04378C28.0674 5.85422 27.9826 5.62674 27.7708 5.51301L26.1183 4.67893V2.17671L27.7708 1.30473ZM25.2709 11.2378V13.8158C25.2285 13.8537 22.6014 15.1807 22.7709 15.1049L20.271 13.8158V11.2378L22.7709 9.94876C22.8133 9.94876 25.4403 11.3136 25.2709 11.2378ZM16.9236 0.88769C16.966 0.925602 19.5931 2.25254 19.4236 2.17671V4.75476L16.9236 6.04378L14.4237 4.75476V2.17671C14.4661 2.1388 17.0931 0.773953 16.9236 0.88769ZM22.7709 0.88769C22.8133 0.925602 25.4403 2.25254 25.2709 2.17671V4.75476L22.7709 6.04378L20.271 4.75476V2.17671C20.3134 2.1388 22.9404 0.773953 22.7709 0.88769ZM2.72914 11.2378L5.22907 9.94876L7.729 11.2378V13.8158L5.22907 15.1049L2.72914 13.8158V11.2378ZM16.9236 15.1049L14.4237 13.8158V11.2378L16.9236 9.94876L19.4236 11.2378V13.8158L16.9236 15.1049ZM8.57643 11.2378L11.0764 9.94876L13.5763 11.2378V13.8158L11.0764 15.1049L8.57643 13.8158V11.2378ZM16.4999 9.26634L14 10.5933L11.5001 9.30425V6.72621L14 5.43718L16.4999 6.72621V9.26634ZM10.6526 9.26634L8.15271 10.5554L5.65278 9.26634V6.68829L8.15271 5.39927L10.6526 6.68829V9.26634ZM5.65278 15.7494L8.15271 14.4603L10.6526 15.7494V18.3274L8.15271 19.6164L5.65278 18.3274V15.7494ZM11.5001 15.7494L14 14.4603L16.4999 15.7494V18.3274L14 19.6543L11.5001 18.3653V15.7494ZM17.3474 15.7494L19.8473 14.4603L22.3472 15.7494V18.3274L19.8473 19.6164L17.3474 18.3274V15.7494ZM19.8473 10.5933L17.3474 9.30425V6.72621L19.8473 5.43718L22.3472 6.72621V9.30425L19.8473 10.5933ZM13.5763 2.17671V4.75476L11.0764 6.04378L8.57643 4.75476V2.17671L11.0764 0.88769C11.1187 0.88769 13.7458 2.25254 13.5763 2.17671ZM2.72914 4.75476V2.17671L5.22907 0.88769L7.729 2.17671V4.75476L5.22907 6.04378C5.1867 6.00587 2.55965 4.67893 2.72914 4.75476ZM5.22907 24.1659L2.72914 22.8769V20.2989C2.77151 20.2609 5.39855 18.934 5.22907 19.0098L7.729 20.2989V22.8769L5.22907 24.1659ZM11.0764 24.1659L8.57643 22.8769V20.2989L11.0764 19.0098L13.5763 20.2989V22.8769L11.0764 24.1659ZM16.9236 24.1659L14.4237 22.8769V20.2989L16.9236 19.0098L19.4236 20.2989V22.8769L16.9236 24.1659ZM22.7709 24.1659L20.271 22.8769V20.2989L22.7709 19.0098C22.8133 19.0477 25.4403 20.3747 25.2709 20.2989V22.8769L22.7709 24.1659Z" fill="#262626"/>
</svg>
