<svg width="24" height="23" viewBox="0 0 24 23" fill="none" xmlns="http://www.w3.org/2000/svg">
<path d="M21.9122 7.73003L21.9122 7.72988L21.9035 7.72856L16.0613 6.84548L13.4129 1.617C13.4128 1.61676 13.4127 1.61653 13.4126 1.61629C12.8343 0.461237 11.1842 0.461237 10.606 1.61629C10.6059 1.61653 10.6058 1.61676 10.6056 1.617L7.95649 6.84708L2.11669 7.79769C0.796647 7.96632 0.307258 9.53825 1.21214 10.4431L1.21358 10.4445L5.42506 14.5878L4.47473 20.4252C4.228 21.6775 5.55884 22.6554 6.70678 22.0815L6.70905 22.0803L12.0085 19.3628L17.2389 22.0797L17.2389 22.0797L17.2424 22.0815C18.3993 22.6599 19.7101 21.6703 19.5456 20.4366L19.5458 20.4366L19.5441 20.4267L18.5254 14.5866L22.7285 10.4514C23.7358 9.60089 23.1973 7.97098 21.9122 7.73003ZM2.25723 8.98675L2.25723 8.98676L2.25949 8.98642L8.6456 8.01467L8.77366 7.99519L8.83159 7.87933L11.6776 2.18767L11.6809 2.1811L11.6838 2.17435C11.7493 2.02147 11.8683 1.96146 11.9746 1.96146C12.0808 1.96146 12.1999 2.02147 12.2654 2.17435L12.2688 2.18222L12.2727 2.18984L15.1881 7.88149L15.2463 7.99519L15.3726 8.01461L21.6893 8.98636L21.6893 8.98637L21.6919 8.98675C21.9694 9.02639 22.0903 9.38385 21.8449 9.58836L21.8369 9.595L21.8295 9.60228L17.3176 14.0445L17.2255 14.1353L17.2463 14.2629L18.287 20.646C18.3074 20.7942 18.2442 20.9076 18.1588 20.9661C18.0766 21.0223 17.9618 21.037 17.8399 20.9557L17.828 20.9478L17.8152 20.9412L12.1233 18.026L12.01 17.968L11.8964 18.0254L6.13503 20.9407L6.12168 20.9474L6.10924 20.9557C6.00156 21.0275 5.89098 21.014 5.7975 20.9451C5.69527 20.8698 5.64482 20.7498 5.66153 20.6496L5.66168 20.6487L6.70289 14.2629L6.7235 14.1365L6.63292 14.0459L2.12099 9.53423C2.00807 9.42132 1.98446 9.28734 2.01188 9.18681C2.03787 9.0915 2.11363 9.00727 2.25723 8.98675Z" fill="#3E3E3E" stroke="#3E3E3E" stroke-width="0.5"/>
</svg>
