<svg width="106" height="67" viewBox="0 0 106 67" fill="none" xmlns="http://www.w3.org/2000/svg">
<path d="M0.313789 14.9V11H15.9438V14.9H10.2738V32H5.95379V14.9H0.313789ZM16.2506 26.6V23.18H22.5206V26.6H16.2506ZM26.7738 24.92C27.4338 26.08 28.1938 27.02 29.0538 27.74C29.9338 28.46 30.9338 28.82 32.0538 28.82C32.9338 28.82 33.6338 28.6 34.1538 28.16C34.6738 27.7 34.9338 27.1 34.9338 26.36C34.9338 25.72 34.7638 25.2 34.4238 24.8C34.1038 24.38 33.6238 24.02 32.9838 23.72C32.3438 23.4 31.5538 23.06 30.6138 22.7C30.0938 22.5 29.5138 22.25 28.8738 21.95C28.2338 21.65 27.6138 21.26 27.0138 20.78C26.4338 20.28 25.9538 19.68 25.5738 18.98C25.1938 18.26 25.0038 17.4 25.0038 16.4C25.0038 15.22 25.3038 14.2 25.9038 13.34C26.5238 12.46 27.3538 11.78 28.3938 11.3C29.4538 10.82 30.6438 10.58 31.9638 10.58C33.2838 10.58 34.4338 10.81 35.4138 11.27C36.3938 11.71 37.2038 12.28 37.8438 12.98C38.5038 13.66 39.0138 14.36 39.3738 15.08L36.0138 17C35.5738 16.24 35.0238 15.6 34.3638 15.08C33.7038 14.54 32.9038 14.27 31.9638 14.27C31.1238 14.27 30.4938 14.47 30.0738 14.87C29.6538 15.25 29.4438 15.7 29.4438 16.22C29.4438 17 29.8338 17.65 30.6138 18.17C31.3938 18.67 32.5738 19.19 34.1538 19.73C35.0738 20.05 35.9338 20.49 36.7338 21.05C37.5538 21.59 38.2138 22.28 38.7138 23.12C39.2338 23.94 39.4938 24.94 39.4938 26.12C39.4938 27.48 39.1438 28.64 38.4438 29.6C37.7438 30.56 36.8238 31.29 35.6838 31.79C34.5638 32.29 33.3738 32.54 32.1138 32.54C30.8138 32.54 29.6038 32.3 28.4838 31.82C27.3838 31.34 26.4138 30.69 25.5738 29.87C24.7538 29.05 24.1138 28.14 23.6538 27.14L26.7738 24.92ZM42.9314 11H47.2514V18.86H57.0314V11H61.3514V32H57.0314V22.79H47.2514V32H42.9314V11ZM64.6415 21.5C64.6415 19.9 64.9215 18.44 65.4815 17.12C66.0415 15.78 66.8215 14.63 67.8215 13.67C68.8415 12.69 70.0215 11.93 71.3615 11.39C72.7015 10.85 74.1615 10.58 75.7415 10.58C77.3415 10.58 78.8115 10.85 80.1515 11.39C81.4915 11.93 82.6615 12.69 83.6615 13.67C84.6815 14.63 85.4615 15.78 86.0015 17.12C86.5615 18.44 86.8415 19.9 86.8415 21.5C86.8415 23.08 86.5615 24.55 86.0015 25.91C85.4615 27.25 84.6915 28.42 83.6915 29.42C82.7115 30.4 81.5415 31.17 80.1815 31.73C78.8415 32.27 77.3615 32.54 75.7415 32.54C74.1215 32.54 72.6315 32.27 71.2715 31.73C69.9315 31.17 68.7615 30.4 67.7615 29.42C66.7815 28.42 66.0115 27.25 65.4515 25.91C64.9115 24.55 64.6415 23.08 64.6415 21.5ZM69.2015 21.5C69.2015 22.84 69.4715 24.03 70.0115 25.07C70.5715 26.11 71.3415 26.93 72.3215 27.53C73.3215 28.11 74.4615 28.4 75.7415 28.4C77.0415 28.4 78.1815 28.11 79.1615 27.53C80.1415 26.93 80.9015 26.11 81.4415 25.07C82.0015 24.03 82.2815 22.84 82.2815 21.5C82.2815 20.16 82.0115 18.97 81.4715 17.93C80.9315 16.89 80.1715 16.08 79.1915 15.5C78.2115 14.9 77.0615 14.6 75.7415 14.6C74.4615 14.6 73.3215 14.9 72.3215 15.5C71.3415 16.08 70.5715 16.89 70.0115 17.93C69.4715 18.97 69.2015 20.16 69.2015 21.5ZM90.1579 11H96.9679C99.4679 11 101.398 11.6 102.758 12.8C104.118 14 104.798 15.64 104.798 17.72C104.798 19.78 104.118 21.41 102.758 22.61C101.398 23.79 99.4679 24.38 96.9679 24.38H94.4779V32H90.1579V11ZM96.9679 14.66H94.4779V20.72H96.9679C98.0879 20.72 98.9779 20.47 99.6379 19.97C100.298 19.45 100.628 18.7 100.628 17.72C100.628 16.72 100.298 15.96 99.6379 15.44C98.9779 14.92 98.0879 14.66 96.9679 14.66Z" fill="#3E3E3E"/>
<path d="M87.0995 50.4923H17.9615C3.29077 50.4923 0.0868166 38.4714 0.0868166 38.4714C-0.250442 37.4697 0.424074 36.301 1.60448 36.1341C2.61625 35.8001 3.79666 36.468 3.96529 37.6367C4.13392 37.9706 6.49473 46.6523 17.9615 46.6523H86.9309C98.3976 46.6523 100.758 37.9706 100.927 37.6367C101.264 36.6349 102.276 35.9671 103.457 36.1341C104.468 36.468 105.143 37.4697 104.974 38.4714C104.806 38.4714 101.77 50.4923 87.0995 50.4923Z" fill="#F0B643"/>
<path d="M25 67.0001C21.0732 67.0001 18 63.6533 18 59.778C18 55.9027 21.2439 52.5559 25 52.5559C28.9268 52.5559 32 55.9027 32 59.778C32 63.6533 28.9268 67.0001 25 67.0001ZM25 56.6073C23.2927 56.6073 21.9268 58.0165 21.9268 59.778C21.9268 61.5395 23.2927 62.9487 25 62.9487C26.7073 62.9487 28.0732 61.5395 28.0732 59.778C28.0732 57.8404 26.7073 56.6073 25 56.6073Z" fill="#F0B643"/>
<path d="M78 67.0001C74.0732 67.0001 71 63.6533 71 59.778C71 55.9027 74.2439 52.5559 78 52.5559C81.7561 52.5559 85 55.9027 85 59.778C85 63.6533 81.9268 67.0001 78 67.0001ZM78 56.6073C76.2927 56.6073 74.9268 58.0165 74.9268 59.778C74.9268 61.5395 76.2927 62.9487 78 62.9487C79.7073 62.9487 81.0732 61.5395 81.0732 59.778C80.9024 57.8404 79.5366 56.6073 78 56.6073Z" fill="#F0B643"/>
</svg>
