<svg width="18" height="18" viewBox="0 0 18 18" fill="none" xmlns="http://www.w3.org/2000/svg">
<path d="M9 18C4.05263 18 0 13.9737 0 9C0 4.02632 4.05263 0 9 0C13.9474 0 18 4.05263 18 9C18 10.6316 17.5526 12.2105 16.7368 13.6053C16.6316 13.7895 16.3947 13.8421 16.1842 13.7368C16 13.6316 15.9474 13.3947 16.0526 13.1842C16.8158 11.9211 17.2105 10.4737 17.2105 9C17.2105 4.47368 13.5263 0.789474 9 0.789474C4.47368 0.789474 0.789474 4.47368 0.789474 9C0.789474 13.5263 4.47368 17.2105 9 17.2105C10.5789 17.2105 11.9737 16.7632 12.7895 15.9737C13.5 15.2895 13.8158 14.5789 13.7632 13.8947C13.6053 12.4211 11.7632 11.2632 11.5526 11.1316C11.5263 11.1316 11.5263 11.1053 11.5263 11.1053C11.5 11.1053 11.4474 11.1316 11.3947 11.1842C11.3421 11.2368 11.1053 11.4474 10.9737 11.6053C10.7632 11.8158 10.6316 11.9474 10.5526 12C10.3947 12.1316 10.1579 12.2895 9.89474 12.2368C9.78947 12.2368 9.71053 12.1842 9.60526 12.1316C9.44737 12.0526 8.73684 11.5263 7.5 10.1316C6.07895 8.52632 6.05263 7.57895 6.05263 7.31579C6.07895 7.02632 6.28947 6.84211 6.44737 6.71053C6.60526 6.57895 6.81579 6.44737 7 6.34211C7.1579 6.26316 7.31579 6.1579 7.44737 6.02632C7.5 5.97368 7.55263 5.94737 7.55263 5.92105C7.55263 5.92105 7.55263 5.92105 7.55263 5.89474C7.5 5.78947 6.76316 4.10526 6.52632 3.63158C6.44737 3.63158 6.34211 3.63158 6.28947 3.6579C4.78947 4.26316 4.57895 5.21053 4.55263 5.57895C4.52632 5.84211 4.42105 8.26316 6.52632 10.8158C8.86842 13.6579 10.7368 14 11.0789 14.0263C11.1579 14.0263 11.5789 14.0789 12.1053 13.8947C12.3158 13.8158 12.5263 13.9211 12.6053 14.1316C12.6842 14.3421 12.5789 14.5526 12.3684 14.6316C11.8421 14.8158 11.3158 14.8421 11 14.8158C10.4211 14.7632 8.36842 14.3158 5.92105 11.3158C3.63158 8.52632 3.73684 5.81579 3.76316 5.52632C3.78947 5.10526 4.02632 3.73684 5.97368 2.97368C6.23684 2.86842 6.86842 2.81579 7.10526 3.13158C7.21053 3.26316 8.26316 5.6579 8.26316 5.68421C8.31579 5.81579 8.31579 5.94737 8.31579 6.07895C8.28947 6.28947 8.1579 6.47369 7.92105 6.68421C7.73684 6.81579 7.55263 6.94737 7.36842 7.07895C7.21053 7.18421 7.05263 7.26316 6.89474 7.39474C6.84211 7.44737 6.81579 7.47368 6.78947 7.47368C6.78947 7.63158 6.89474 8.36842 8.02632 9.63158C9.21053 10.9737 9.81579 11.3947 9.89474 11.4474C9.92105 11.4474 9.94737 11.4211 10 11.3684C10.0526 11.3158 10.2105 11.1579 10.3421 11.0263C10.6053 10.7632 10.7632 10.6053 10.8684 10.5263C11.1316 10.3421 11.3421 10.2632 11.5526 10.2895C11.6842 10.3158 11.8158 10.3421 11.9211 10.4211C12.3158 10.6579 14.3158 11.9737 14.5263 13.7895C14.6316 14.7632 14.2368 15.6842 13.3158 16.5263C12.3684 17.4474 10.7895 18 9 18Z" fill="#3E3E3E"/>
</svg>
