<svg width="28" height="33" viewBox="0 0 28 33" fill="none" xmlns="http://www.w3.org/2000/svg">
<g clip-path="url(#clip0)">
<path d="M22.8495 0H4.56989C3.35788 0 2.19551 0.46357 1.33849 1.28873C0.48147 2.11389 0 3.23305 0 4.4L0 22C0 23.167 0.48147 24.2861 1.33849 25.1113C2.19551 25.9364 3.35788 26.4 4.56989 26.4H22.8495C24.0615 26.4 25.2238 25.9364 26.0809 25.1113C26.9379 24.2861 27.4194 23.167 27.4194 22V4.4C27.4194 3.23305 26.9379 2.11389 26.0809 1.28873C25.2238 0.46357 24.0615 0 22.8495 0V0ZM25.1344 22C25.1344 22.5835 24.8937 23.1431 24.4652 23.5556C24.0367 23.9682 23.4555 24.2 22.8495 24.2H4.56989C3.96389 24.2 3.3827 23.9682 2.95419 23.5556C2.52568 23.1431 2.28495 22.5835 2.28495 22V4.4C2.28495 3.81652 2.52568 3.25695 2.95419 2.84437C3.3827 2.43179 3.96389 2.2 4.56989 2.2H22.8495C23.4555 2.2 24.0367 2.43179 24.4652 2.84437C24.8937 3.25695 25.1344 3.81652 25.1344 4.4V22Z" fill="white"/>
<path d="M13.7098 6.6001C12.3541 6.6001 11.0287 6.98718 9.90148 7.7124C8.7742 8.43762 7.8956 9.4684 7.37678 10.6744C6.85795 11.8804 6.7222 13.2074 6.9867 14.4877C7.25119 15.768 7.90405 16.944 8.86272 17.867C9.82139 18.79 11.0428 19.4186 12.3725 19.6733C13.7022 19.9279 15.0805 19.7972 16.3331 19.2977C17.5856 18.7982 18.6562 17.9522 19.4094 16.8669C20.1626 15.7815 20.5647 14.5055 20.5647 13.2001C20.5647 11.4497 19.8425 9.77093 18.5569 8.53319C17.2714 7.29545 15.5278 6.6001 13.7098 6.6001ZM13.7098 17.6001C12.806 17.6001 11.9224 17.342 11.1709 16.8586C10.4194 16.3751 9.83368 15.6879 9.48779 14.8839C9.14191 14.0799 9.05141 13.1952 9.22774 12.3417C9.40407 11.4882 9.83931 10.7042 10.4784 10.0888C11.1175 9.47348 11.9318 9.05442 12.8183 8.88464C13.7048 8.71487 14.6236 8.802 15.4586 9.13503C16.2937 9.46805 17.0074 10.032 17.5095 10.7556C18.0117 11.4792 18.2797 12.3299 18.2797 13.2001C18.2797 14.3671 17.7982 15.4862 16.9412 16.3114C16.0842 17.1365 14.9218 17.6001 13.7098 17.6001Z" fill="white"/>
<path d="M21.1361 7.6999C22.0825 7.6999 22.8498 6.96117 22.8498 6.0499C22.8498 5.13863 22.0825 4.3999 21.1361 4.3999C20.1896 4.3999 19.4224 5.13863 19.4224 6.0499C19.4224 6.96117 20.1896 7.6999 21.1361 7.6999Z" fill="white"/>
</g>
<defs>
<clipPath id="clip0">
<rect width="27.4194" height="33" fill="white"/>
</clipPath>
</defs>
</svg>
