<svg width="28" height="28" viewBox="0 0 28 28" fill="none" xmlns="http://www.w3.org/2000/svg">
<path d="M14 28C6.30409 28 0 21.7368 0 14C0 6.26316 6.30409 0 14 0C21.6959 0 28 6.30409 28 14C28 16.538 27.3041 18.9942 26.0351 21.1637C25.8713 21.4503 25.5029 21.5322 25.1754 21.3684C24.8889 21.2047 24.807 20.8363 24.9708 20.5088C26.1579 18.5439 26.7719 16.2924 26.7719 14C26.7719 6.95907 21.0409 1.22807 14 1.22807C6.95907 1.22807 1.22807 6.95907 1.22807 14C1.22807 21.0409 6.95907 26.7719 14 26.7719C16.4561 26.7719 18.6257 26.076 19.8947 24.848C21 23.7836 21.4912 22.6784 21.4094 21.614C21.1637 19.3216 18.2982 17.5205 17.9708 17.3158C17.9298 17.3158 17.9298 17.2749 17.9298 17.2749C17.8889 17.2749 17.807 17.3158 17.7251 17.3977C17.6433 17.4795 17.2749 17.807 17.0702 18.0526C16.7427 18.3801 16.538 18.5848 16.4152 18.6667C16.1696 18.8713 15.8012 19.117 15.3918 19.0351C15.2281 19.0351 15.1053 18.9532 14.9415 18.8713C14.6959 18.7485 13.5906 17.9298 11.6667 15.7602C9.45614 13.2632 9.41521 11.7895 9.41521 11.3801C9.45614 10.9298 9.78363 10.6433 10.0292 10.4386C10.2749 10.2339 10.6023 10.0292 10.8889 9.8655C11.1345 9.74269 11.3801 9.57895 11.5848 9.37427C11.6667 9.2924 11.7485 9.25146 11.7485 9.21053C11.7485 9.21053 11.7485 9.21053 11.7485 9.16959C11.6667 9.00585 10.5205 6.38597 10.152 5.64912C10.0292 5.64912 9.8655 5.64912 9.78363 5.69006C7.45029 6.63158 7.12281 8.10526 7.08187 8.67836C7.04094 9.08772 6.87719 12.8538 10.152 16.8246C13.7953 21.2456 16.7018 21.7778 17.2339 21.8187C17.3567 21.8187 18.0117 21.9006 18.8304 21.614C19.1579 21.4912 19.4854 21.655 19.6082 21.9825C19.731 22.3099 19.5673 22.6374 19.2398 22.7602C18.4211 23.0468 17.6023 23.0877 17.1111 23.0468C16.2105 22.9649 13.0175 22.269 9.21053 17.6023C5.64912 13.2632 5.81287 9.04678 5.8538 8.59649C5.89474 7.94152 6.26316 5.81287 9.2924 4.62573C9.70176 4.46199 10.6842 4.38012 11.0526 4.87135C11.2164 5.07602 12.8538 8.80117 12.8538 8.84211C12.9357 9.04679 12.9357 9.25146 12.9357 9.45614C12.8947 9.78363 12.6901 10.0702 12.3216 10.3977C12.0351 10.6023 11.7485 10.807 11.462 11.0117C11.2164 11.1754 10.9708 11.2982 10.7251 11.5029C10.6433 11.5848 10.6023 11.6257 10.5614 11.6257C10.5614 11.8713 10.7251 13.0175 12.4854 14.9825C14.3275 17.0702 15.269 17.7251 15.3918 17.807C15.4328 17.807 15.4737 17.7661 15.5556 17.6842C15.6374 17.6023 15.883 17.3567 16.0877 17.152C16.4971 16.7427 16.7427 16.4971 16.9064 16.3743C17.3158 16.0877 17.6433 15.9649 17.9708 16.0058C18.1754 16.0468 18.3801 16.0877 18.5439 16.2105C19.1579 16.5789 22.269 18.6257 22.5965 21.4503C22.7602 22.9649 22.1462 24.3977 20.7135 25.7076C19.2398 27.1404 16.7836 28 14 28Z" fill="white"/>
</svg>
